<svg width="100%" viewBox="0 0 680 452" role="img" xmlns="http://www.w3.org/2000/svg">
<title>Меню Sotto в строке состояния</title>
<desc>Выпадающее меню Sotto: шапка с иконкой-волной, заголовком и статус-пиллом «Слушаю»; акцентная кнопка «Старт встречи»; группы Окна, Контекст и Система со строками-иконками.</desc>

<rect x="0" y="0" width="680" height="452" fill="#0A0E1A"/>
<circle cx="500" cy="180" r="170" fill="#818CF8" opacity="0.05"/>
<path d="M500 28 L492 38 L508 38 Z" fill="#050B18"/>
<rect x="350" y="36" width="300" height="402" rx="12" fill="#050B18" stroke="#FFFFFF" stroke-opacity="0.10" stroke-width="1"/>

<rect x="367" y="55" width="2.5" height="10" rx="1" fill="#818CF8"/>
<rect x="371" y="51" width="2.5" height="18" rx="1" fill="#818CF8"/>
<rect x="375" y="57" width="2.5" height="6" rx="1" fill="#818CF8"/>
<rect x="379" y="53" width="2.5" height="14" rx="1" fill="#818CF8"/>
<text x="390" y="65" font-family="ui-sans-serif, -apple-system, sans-serif" font-size="17" font-weight="600" fill="#F8FAFC">Sotto</text>
<rect x="558" y="50" width="76" height="18" rx="9" fill="#161F30"/>
<circle cx="570" cy="59" r="3" fill="#4ADE80"/>
<text x="578" y="63" font-family="ui-sans-serif, sans-serif" font-size="11" font-weight="500" fill="#CBD5E1">Слушаю</text>

<line x1="366" y1="80" x2="634" y2="80" stroke="#FFFFFF" stroke-opacity="0.08" stroke-width="1"/>
<text x="366" y="98" font-family="ui-sans-serif, sans-serif" font-size="11" fill="#94A3B8">СЕССИЯ</text>
<rect x="366" y="104" width="268" height="34" rx="12" fill="#818CF8"/>
<path d="M380 114 L380 128 L391 121 Z" fill="#FFFFFF"/>
<text x="400" y="125" font-family="ui-sans-serif, sans-serif" font-size="13" font-weight="500" fill="#FFFFFF">Старт встречи</text>

<line x1="366" y1="152" x2="634" y2="152" stroke="#FFFFFF" stroke-opacity="0.08" stroke-width="1"/>
<text x="366" y="170" font-family="ui-sans-serif, sans-serif" font-size="11" fill="#94A3B8">ОКНА</text>

<circle cx="375" cy="184" r="6" fill="none" stroke="#CBD5E1" stroke-width="1"/>
<line x1="375" y1="184" x2="375" y2="180.5" stroke="#CBD5E1" stroke-width="1" stroke-linecap="round"/>
<line x1="375" y1="184" x2="377.5" y2="185.5" stroke="#CBD5E1" stroke-width="1" stroke-linecap="round"/>
<text x="392" y="188" font-family="ui-sans-serif, sans-serif" font-size="13" fill="#F8FAFC">История</text>

<rect x="369" y="203" width="12" height="2" rx="1" fill="#CBD5E1"/>
<rect x="369" y="207" width="12" height="2" rx="1" fill="#CBD5E1"/>
<rect x="369" y="211" width="8" height="2" rx="1" fill="#CBD5E1"/>
<text x="392" y="212" font-family="ui-sans-serif, sans-serif" font-size="13" fill="#F8FAFC">Summary разговора</text>

<circle cx="375" cy="231" r="3" fill="none" stroke="#CBD5E1" stroke-width="1"/>
<path d="M369 240 a6 5 0 0 1 12 0" fill="none" stroke="#CBD5E1" stroke-width="1"/>
<text x="392" y="236" font-family="ui-sans-serif, sans-serif" font-size="13" fill="#F8FAFC">Профиль · контекст</text>

<rect x="368" y="252" width="13" height="10" rx="2" fill="none" stroke="#CBD5E1" stroke-width="1"/>
<line x1="368" y1="256" x2="381" y2="256" stroke="#CBD5E1" stroke-width="1"/>
<text x="392" y="260" font-family="ui-sans-serif, sans-serif" font-size="13" fill="#F8FAFC">Оверлей: показать/скрыть</text>

<line x1="366" y1="276" x2="634" y2="276" stroke="#FFFFFF" stroke-opacity="0.08" stroke-width="1"/>
<text x="366" y="294" font-family="ui-sans-serif, sans-serif" font-size="11" fill="#94A3B8">КОНТЕКСТ</text>
<rect x="368" y="302" width="13" height="13" rx="2" fill="none" stroke="#94A3B8" stroke-width="1"/>
<rect x="372" y="306" width="5" height="5" fill="#94A3B8"/>
<text x="392" y="307" font-family="ui-sans-serif, sans-serif" font-size="11" font-weight="500" fill="#CBD5E1">Apple M1</text>
<text x="392" y="320" font-family="ui-sans-serif, sans-serif" font-size="11" fill="#94A3B8">RAM 16 ГБ · профиль: Сбалансированный</text>

<line x1="366" y1="334" x2="634" y2="334" stroke="#FFFFFF" stroke-opacity="0.08" stroke-width="1"/>
<text x="366" y="352" font-family="ui-sans-serif, sans-serif" font-size="11" fill="#94A3B8">СИСТЕМА</text>

<rect x="371" y="360" width="8" height="11" rx="4" fill="none" stroke="#CBD5E1" stroke-width="1"/>
<line x1="375" y1="373" x2="375" y2="376" stroke="#CBD5E1" stroke-width="1"/>
<text x="392" y="370" font-family="ui-sans-serif, sans-serif" font-size="13" fill="#F8FAFC">Тест микрофона</text>

<circle cx="369" cy="392" r="1.6" fill="#CBD5E1"/><line x1="374" y1="392" x2="381" y2="392" stroke="#CBD5E1" stroke-width="1"/>
<circle cx="377" cy="396" r="1.6" fill="#CBD5E1"/><line x1="369" y1="396" x2="374" y2="396" stroke="#CBD5E1" stroke-width="1"/>
<text x="392" y="396" font-family="ui-sans-serif, sans-serif" font-size="13" fill="#F8FAFC">Настройки моделей…</text>

<path d="M375 414 a7 7 0 1 1 -3 -6" fill="none" stroke="#F87171" stroke-width="1"/>
<line x1="375" y1="408" x2="375" y2="416" stroke="#F87171" stroke-width="1" stroke-linecap="round"/>
<text x="392" y="420" font-family="ui-sans-serif, sans-serif" font-size="13" fill="#F87171">Выйти</text>
</svg>
