<svg width="100%" viewBox="0 0 680 358" role="img" xmlns="http://www.w3.org/2000/svg">
<title>Палитра быстрого переключения контекста Sotto</title>
<desc>Палитра Sotto по ⌘⌥P: поле поиска и список контекстов; активный «iOS · собеседование» с галкой, выделенный клавиатурным курсором «Backend · System Design», у каждого мета роль/язык/длина и теги.</desc>

<rect x="0" y="0" width="680" height="358" fill="#0A0E1A"/>
<circle cx="340" cy="175" r="180" fill="#818CF8" opacity="0.05"/>
<rect x="100" y="44" width="480" height="290" rx="16" fill="#131B2E" stroke="#FFFFFF" stroke-opacity="0.14" stroke-width="1"/>

<rect x="116" y="60" width="448" height="38" rx="10" fill="#0E1626" stroke="#FFFFFF" stroke-opacity="0.10" stroke-width="1"/>
<circle cx="135" cy="78" r="5" fill="none" stroke="#94A3B8" stroke-width="1.2"/>
<line x1="139" y1="82" x2="143" y2="86" stroke="#94A3B8" stroke-width="1.2" stroke-linecap="round"/>
<text x="154" y="83" font-family="ui-sans-serif, sans-serif" font-size="13" fill="#94A3B8">Поиск контекста…</text>
<text x="548" y="83" text-anchor="end" font-family="ui-monospace, monospace" font-size="11" fill="#64748B">⌘⌥P</text>

<path d="M548 124 l3.5 3.5 l6 -7" fill="none" stroke="#34D399" stroke-width="1.8" stroke-linecap="round" stroke-linejoin="round"/>
<text x="132" y="130" font-family="ui-sans-serif, sans-serif" font-size="13" font-weight="500" fill="#F8FAFC">iOS · собеседование</text>
<text x="132" y="148" font-family="ui-sans-serif, sans-serif" font-size="11" fill="#94A3B8">iOS-инженер · ru · кратко</text>
<rect x="132" y="156" width="46" height="17" rx="4" fill="#1B2742"/><text x="155" y="168" text-anchor="middle" font-family="ui-sans-serif, sans-serif" font-size="11" fill="#9FB3D1">Swift</text>
<rect x="184" y="156" width="86" height="17" rx="4" fill="#1B2742"/><text x="227" y="168" text-anchor="middle" font-family="ui-sans-serif, sans-serif" font-size="11" fill="#9FB3D1">Concurrency</text>
<rect x="276" y="156" width="44" height="17" rx="4" fill="#1B2742"/><text x="298" y="168" text-anchor="middle" font-family="ui-sans-serif, sans-serif" font-size="11" fill="#9FB3D1">UIKit</text>

<rect x="108" y="184" width="464" height="56" rx="8" fill="#FFFFFF" fill-opacity="0.05"/>
<rect x="108" y="184" width="3" height="56" fill="#818CF8"/>
<text x="132" y="204" font-family="ui-sans-serif, sans-serif" font-size="13" font-weight="500" fill="#F8FAFC">Backend · System Design</text>
<text x="132" y="222" font-family="ui-sans-serif, sans-serif" font-size="11" fill="#94A3B8">бэкенд-инженер · ru · средне</text>
<rect x="132" y="226" width="40" height="16" rx="4" fill="#1B2742"/><text x="152" y="237" text-anchor="middle" font-family="ui-sans-serif, sans-serif" font-size="11" fill="#9FB3D1">SQL</text>
<rect x="178" y="226" width="48" height="16" rx="4" fill="#1B2742"/><text x="202" y="237" text-anchor="middle" font-family="ui-sans-serif, sans-serif" font-size="11" fill="#9FB3D1">Кэш</text>
<rect x="232" y="226" width="62" height="16" rx="4" fill="#1B2742"/><text x="263" y="237" text-anchor="middle" font-family="ui-sans-serif, sans-serif" font-size="11" fill="#9FB3D1">Очереди</text>

<text x="132" y="266" font-family="ui-sans-serif, sans-serif" font-size="13" font-weight="500" fill="#F8FAFC">Поведенческое</text>
<text x="132" y="284" font-family="ui-sans-serif, sans-serif" font-size="11" fill="#94A3B8">— · ru · развёрнуто</text>
<rect x="132" y="292" width="50" height="16" rx="4" fill="#1B2742"/><text x="157" y="303" text-anchor="middle" font-family="ui-sans-serif, sans-serif" font-size="11" fill="#9FB3D1">STAR</text>
<rect x="188" y="292" width="78" height="16" rx="4" fill="#1B2742"/><text x="227" y="303" text-anchor="middle" font-family="ui-sans-serif, sans-serif" font-size="11" fill="#9FB3D1">Лидерство</text>

<text x="340" y="324" text-anchor="middle" font-family="ui-sans-serif, sans-serif" font-size="11" fill="#64748B">↑↓ выбрать      ↵ применить      esc закрыть</text>
</svg>
